<svg xmlns="http://www.w3.org/2000/svg" width="64" height="64" viewBox="0 0 64 64" fill="none">
  <rect width="64" height="64" rx="16" fill="#00875A"/>
  <g transform="translate(12, 12) scale(1.666)" stroke="#ffffff" stroke-width="2" stroke-linecap="round" stroke-linejoin="round" fill="none">
    <path d="M19 17h2c.6 0 1-.4 1-1v-3c0-.9-.7-1.7-1.5-1.9C18.7 10.6 16 10 12 10s-6.7.6-8.5 1.1C2.7 11.3 2 12.1 2 13v3c0 .6.4 1 1 1h2"/>
    <circle cx="7" cy="17" r="2"/>
    <path d="M9 17h6"/>
    <circle cx="17" cy="17" r="2"/>
    <path d="M5 10l1.5-4.5C6.8 4.6 7.9 4 9 4h6c1.1 0 2.2.6 2.5 1.5L19 10"/>
  </g>
</svg>
